<svg class="letter-i" data-name="Layer 1" xmlns="http://www.w3.org/2000/svg" viewBox="0 0 800 800">
<style>
<![CDATA[
.cls-1 {
  fill: none;
  stroke: #000;
  stroke-miterlimit: 15;
  stroke-width: 16px;
  stroke-linecap: round;
  stroke-miterlimit: 10;
  stroke-dasharray: 1500;
  -webkit-animation: lines 4s infinite calc(var(--item) * .9s);
          animation: lines 4s infinite calc(var(--item) * 1s);
}

.dot {
  stroke-dasharray: 500;
  stroke: var(--color);
}

.stem {
  stroke: var(--color);
}

@-webkit-keyframes lines {
  100% {
    stroke-dashoffset: 3000;
  }
}

@keyframes lines {
  100% {
    stroke-dashoffset: 3000;
  }
}
]]>
</style>
  
   <path class="cls-1 dot" style="--item: 1; --color: rgb(88, 40, 215)" d="M378.7,89.91c-17.65,14.52-34.72,30.92-43.88,51.86S326,189.21,341,206.48c8.14,9.39,19.75,15.23,31.72,18.55,25.22,7,53.35,3.24,75.49-10.7s37.77-38,40.81-64c1.33-11.45.17-23.6-5.85-33.43-6.27-10.25-17-16.86-28-21.87-14.09-6.45-29.52-10.94-44.95-9.58s-30.85,9.36-38.26,23"/>
   <path class="cls-1 dot" style="--item: 2; --color: rgb(246, 9, 149)" d="M360,95a85.56,85.56,0,0,0-34.89,62.73c-1,15.07,2.42,31,12.41,42.35,7.93,9,19.27,14.35,30.81,17.67,22.29,6.41,46.87,5.91,68.14-3.37s38.78-27.73,45-50.08.3-48.15-16.48-64.17c-15-14.32-36.51-19.77-57.22-20.88S354.37,85.36,343.42,106"/>
   
   <path class="cls-1 dot" style="--item: 3; --color: rgb(254, 219, 59)" d="M350.86,214.05c16.6,13.44,40.51,12.88,61.34,8.15,18.88-4.28,37.51-11.67,51.9-24.63,14.64-13.18,17.36-23.28,14-41.64A63.93,63.93,0,0,0,449.66,113c-19.08-12.13-43.28-14.4-65.45-9.91-17.84,3.61-35.33,11.77-47,25.78-9.84,11.86-16.54,31.25-10.52,46.34C331.89,188.16,339.89,205.18,350.86,214.05Z"/>
</svg>